<svg xmlns="http://www.w3.org/2000/svg" viewBox="0 0 295 260"><defs><style>.cls-1{fill:#f15a24;}.cls-2{fill:red;}.cls-2,.cls-3,.cls-4{stroke:#f15a24;}.cls-2,.cls-3{stroke-linejoin:round;stroke-width:25px;}.cls-3,.cls-4{fill:none;}.cls-3{stroke-linecap:round;}.cls-4{stroke-miterlimit:10;stroke-width:2.06px;}</style></defs><g id="Слой_4" data-name="Слой 4"><path class="cls-1" d="M230.43,25c9.46.71,16.51,2.94,20.42,6.47,1.18,1.06,4.74,4.28,5.84,14.25L270,214.9c-.21,3.48-2.62,7.91-6.4,11.72C258.46,231.79,251.73,235,246,235H202.19c-14.11-2.88-18.68-9-21.07-14.8l-9.78-31a25,25,0,0,0-47.68,0l-9.89,31.3c-1.33,3.59-4.64,10.86-21.14,14.47H48.91c-9.89,0-22.4-9.52-23.83-20.92L38.29,45.88C39.61,35.41,43.42,32.1,44.68,31,49.56,26.77,58,25.39,64.4,25h166m.88-25H63.69C33.14,1.61,16.59,16.27,13.41,43.4L0,214.11C1.31,239.32,25.41,260,48.91,260l1.27,0H95.12q33.13-6.21,42.32-31.41l10.06-31.82,10.06,31.82c6.36,16.43,19.67,27.51,42.32,31.41h44.93l1.22,0c24.67,0,49.17-22.89,49-45.89L281.59,43.4C278.91,17.85,263.74,2.13,231.31,0Z"/><line class="cls-2" x1="17.49" y1="65.71" x2="277.09" y2="65.71"/><line class="cls-3" x1="113.81" y1="98.8" x2="138.71" y2="75.17"/><line class="cls-3" x1="181.19" y1="98.8" x2="156.29" y2="75.17"/><rect class="cls-4" x="57.56" y="124.55" width="25.75" height="25.75" rx="3.69" transform="translate(-76.55 90.06) rotate(-45)"/><path class="cls-1" d="M87,128.46a1.12,1.12,0,0,0-.71.25l-6.12,5a1.12,1.12,0,0,0,.71,2,1.12,1.12,0,0,0,.71-.25l6.12-4.95a1.14,1.14,0,0,0,.17-1.59,1.16,1.16,0,0,0-.88-.42Z"/><path class="cls-1" d="M82.8,124.81a1.12,1.12,0,0,0-.71.25L76,130a1.14,1.14,0,0,0-.16,1.59,1.11,1.11,0,0,0,.88.42,1.09,1.09,0,0,0,.7-.25l6.12-5a1.12,1.12,0,0,0-.71-2Z"/><path class="cls-1" d="M79.16,121.15a1.18,1.18,0,0,0-.71.25l-6.12,5a1.14,1.14,0,0,0-.17,1.59,1.16,1.16,0,0,0,.88.42,1.13,1.13,0,0,0,.71-.26l6.12-5a1.13,1.13,0,0,0-.71-2Z"/><path class="cls-1" d="M67.88,146.52a1.13,1.13,0,0,0-.7.25l-6.12,5a1.13,1.13,0,0,0-.17,1.59,1.14,1.14,0,0,0,.88.42,1.13,1.13,0,0,0,.71-.26l6.12-4.95a1.14,1.14,0,0,0,.16-1.59h0a1.14,1.14,0,0,0-.88-.42Z"/><path class="cls-1" d="M63.65,142.87a1.12,1.12,0,0,0-.71.25l-6.12,5a1.13,1.13,0,0,0-.17,1.58,1.13,1.13,0,0,0,1.59.17l6.12-5a1.12,1.12,0,0,0-.71-2Z"/><path class="cls-1" d="M60,139.22a1.12,1.12,0,0,0-.71.25l-6.12,4.95a1.13,1.13,0,0,0,.71,2,1.18,1.18,0,0,0,.71-.25l6.12-5a1.12,1.12,0,0,0-.71-2Z"/><path class="cls-1" d="M73.27,146.48a1.12,1.12,0,0,0-.71.25,1.14,1.14,0,0,0-.16,1.59l4.95,6.12a1.14,1.14,0,0,0,.88.42,1.18,1.18,0,0,0,.71-.25,1.14,1.14,0,0,0,.17-1.59l-5-6.12a1.11,1.11,0,0,0-.88-.42Z"/><path class="cls-1" d="M76.93,142.87a1.13,1.13,0,0,0-.88,1.84l5,6.12a1.13,1.13,0,0,0,.87.41,1.1,1.1,0,0,0,.71-.25,1.12,1.12,0,0,0,.17-1.58l-5-6.12a1.09,1.09,0,0,0-.87-.42Z"/><path class="cls-1" d="M80.92,139a1.12,1.12,0,0,0-.71.25,1.14,1.14,0,0,0-.17,1.59L85,147a1.14,1.14,0,0,0,.88.42,1.13,1.13,0,0,0,.87-1.84l-5-6.12a1.13,1.13,0,0,0-.88-.42Z"/><path class="cls-1" d="M55.43,127.33a1.12,1.12,0,0,0-.71.25,1.14,1.14,0,0,0-.17,1.59l5,6.12a1.13,1.13,0,0,0,.88.41,1.12,1.12,0,0,0,.71-.25,1.14,1.14,0,0,0,.16-1.59l-4.95-6.12a1.13,1.13,0,0,0-.88-.41Z"/><path class="cls-1" d="M59.08,123.72a1.12,1.12,0,0,0-.87,1.83l4.95,6.12a1.13,1.13,0,1,0,1.76-1.42l-5-6.12a1.13,1.13,0,0,0-.88-.41Z"/><path class="cls-1" d="M63.08,119.86a1.1,1.1,0,0,0-.71.25,1.12,1.12,0,0,0-.17,1.58l5,6.12a1.09,1.09,0,0,0,.87.42,1.13,1.13,0,0,0,.88-1.84l-5-6.12a1.13,1.13,0,0,0-.87-.41Z"/></g></svg>