<svg xmlns="http://www.w3.org/2000/svg" viewBox="0 0 410 105"><g fill="#f15a24"><path d="M100.45,38.4V93.18a9.31,9.31,0,0,1-9.57,9.57H9.26A9.31,9.31,0,0,1-.31,93.18V38.4a9.28,9.28,0,0,1,9.46-9.57,9.28,9.28,0,0,1,9.46,9.57V85.71h22V38.4a9.46,9.46,0,1,1,18.92,0V85.71h22V38.4a9.46,9.46,0,1,1,18.92,0Z"/><path d="M130.37,94.5V47.2H116.18a8.53,8.53,0,1,1,0-17.05h47.3a8.33,8.33,0,0,1,8.69,8.47,8.41,8.41,0,0,1-8.69,8.58H149.29V94.5a9.46,9.46,0,1,1-18.92,0Z"/><path d="M233,95.05c0,5.17-4,9-9.35,9-4.07,0-7.15-2.32-8.92-6.83l-1.54-3.84h-26l-1.54,3.84c-1.75,4.51-4.84,6.83-8.91,6.83-5.38,0-9.34-3.86-9.34-9a13,13,0,0,1,1-4.62L191.19,35.1c1.66-4.07,4.74-6.27,9-6.27s7.37,2.2,9,6.27L232,90.43A13,13,0,0,1,233,95.05ZM192.85,78.22h14.74L200.22,57Z"/><path d="M243.66,94.29V38.62c0-5.61,4-9.79,9.46-9.79s9.46,4.18,9.46,9.79V56.67h26.51V38.4a9.46,9.46,0,1,1,18.92,0V94.29a9.47,9.47,0,1,1-18.92,0V73.71H262.58V94.29a9.47,9.47,0,1,1-18.92,0Z"/><path d="M341.34,38.4V52.71h11.44c16.39,0,28.05,10.44,28.05,25.08,0,14.84-11.44,25-28.05,25H332a9.31,9.31,0,0,1-9.57-9.57V38.4a9.46,9.46,0,1,1,18.92,0Zm0,30.81v17h11.55c5.28,0,8.69-3.41,8.69-8.46s-3.41-8.58-8.69-8.58ZM391.39,94.5V38.4a9.46,9.46,0,1,1,18.92,0V94.5a9.46,9.46,0,1,1-18.92,0Z"/><path d="M17.8,9.67c0,5.13-3.35,8.81-8,8.81a5.93,5.93,0,0,1-4.29-1.54V21.6a2.83,2.83,0,0,1-2.88,2.91A2.83,2.83,0,0,1-.29,21.6V3.74A2.75,2.75,0,0,1,2.52.92,2.74,2.74,0,0,1,5.17,2.8,5.72,5.72,0,0,1,9.76.92C14.45.92,17.8,4.54,17.8,9.67Zm-5.89,0A3.26,3.26,0,0,0,8.62,6.15,3.23,3.23,0,0,0,5.37,9.67a3.28,3.28,0,1,0,6.54,0Z"/><path d="M35.69,8.36V15.6a2.81,2.81,0,0,1-5.36,1.21,6.85,6.85,0,0,1-4.69,1.67c-3.45,0-5.79-2.07-5.79-5.16s2.44-5,6.56-5h3.52V8c0-1.38-.94-2.15-2.58-2.15a4.69,4.69,0,0,0-2.65.84,2.54,2.54,0,0,1-1.54.57A2.35,2.35,0,0,1,20.75,5,2.9,2.9,0,0,1,22,2.7,9.6,9.6,0,0,1,28,.92C33,.92,35.69,3.61,35.69,8.36ZM29.93,12v-.13H27.22c-1,0-1.54.46-1.54,1.27s.63,1.31,1.71,1.31A2.37,2.37,0,0,0,29.93,12Z"/><path d="M60,16.17v4.12a2.88,2.88,0,1,1-5.76,0V18.08H43.87v2.21a2.88,2.88,0,1,1-5.76,0V16.17A2.83,2.83,0,0,1,41,13.26h.1C42.9,11,43.53,8.5,43.53,4.11v0a2.79,2.79,0,0,1,2.92-2.74H54A2.83,2.83,0,0,1,56.9,4.24v9h.2A2.84,2.84,0,0,1,60,16.17ZM47.29,13.26h3.85V6.15H49.3C49.23,9.24,48.59,11.58,47.29,13.26Z"/><path d="M79.35,3.84V15.57a2.88,2.88,0,1,1-5.76,0v-5l-5.46,6.53a3.21,3.21,0,0,1-2.55,1.34,2.83,2.83,0,0,1-2.88-2.91V3.84a2.88,2.88,0,1,1,5.76,0v5l5.46-6.54A3.23,3.23,0,0,1,76.47.92,2.83,2.83,0,0,1,79.35,3.84Z"/><path d="M100.66,9.7a9.14,9.14,0,0,1-18.26,0,9.14,9.14,0,0,1,18.26,0ZM88.3,9.7a3.2,3.2,0,0,0,3.25,3.49A3.25,3.25,0,0,0,94.76,9.7a3.26,3.26,0,0,0-3.21-3.48A3.22,3.22,0,0,0,88.3,9.7Z"/></g></svg>